<?xml version="1.0" encoding="UTF-8" standalone="no"?>
<!-- Generator: Adobe Illustrator 16.1.0, SVG Export Plug-In . SVG Version: 6.00 Build 0)  -->

<svg
   xmlns:dc="http://purl.org/dc/elements/1.1/"
   xmlns:cc="http://creativecommons.org/ns#"
   xmlns:rdf="http://www.w3.org/1999/02/22-rdf-syntax-ns#"
   xmlns:svg="http://www.w3.org/2000/svg"
   xmlns="http://www.w3.org/2000/svg"
   xmlns:sodipodi="http://sodipodi.sourceforge.net/DTD/sodipodi-0.dtd"
   xmlns:inkscape="http://www.inkscape.org/namespaces/inkscape"
   version="1.1"
   id="Layer_1"
   x="0px"
   y="0px"
   width="48px"
   height="48px"
   viewBox="0 0 48 48"
   enable-background="new 0 0 48 48"
   xml:space="preserve"
   inkscape:version="0.48.5 r10040"
   sodipodi:docname="SGD.svg"><sodipodi:namedview
   pagecolor="#ffffff"
   bordercolor="#666666"
   borderopacity="1"
   objecttolerance="10"
   gridtolerance="10"
   guidetolerance="10"
   inkscape:pageopacity="0"
   inkscape:pageshadow="2"
   inkscape:window-width="1280"
   inkscape:window-height="697"
   id="namedview55"
   showgrid="false"
   inkscape:zoom="3.4766083"
   inkscape:cx="-35.806779"
   inkscape:cy="9.3257465"
   inkscape:window-x="-8"
   inkscape:window-y="-8"
   inkscape:window-maximized="1"
   inkscape:current-layer="Layer_1" /><metadata
   id="metadata59"><rdf:RDF><cc:Work
       rdf:about=""><dc:format>image/svg+xml</dc:format><dc:type
         rdf:resource="http://purl.org/dc/dcmitype/StillImage" /><dc:title /></cc:Work></rdf:RDF></metadata><defs
   id="defs57"><marker
   style="overflow:visible;"
   id="Arrow1Send"
   refX="0.0"
   refY="0.0"
   orient="auto"
   inkscape:stockid="Arrow1Send"><path
     transform="scale(0.2) rotate(180) translate(6,0)"
     style="fill-rule:evenodd;stroke:#000000;stroke-width:1.0pt;"
     d="M 0.0,0.0 L 5.0,-5.0 L -12.5,0.0 L 5.0,5.0 L 0.0,0.0 z "
     id="path3862" /></marker><marker
   style="overflow:visible;"
   id="Arrow1Lend"
   refX="0.0"
   refY="0.0"
   orient="auto"
   inkscape:stockid="Arrow1Lend"><path
     transform="scale(0.8) rotate(180) translate(12.5,0)"
     style="fill-rule:evenodd;stroke:#000000;stroke-width:1.0pt;"
     d="M 0.0,0.0 L 5.0,-5.0 L -12.5,0.0 L 5.0,5.0 L 0.0,0.0 z "
     id="path3850" /></marker>
	
		

	
<marker
   style="overflow:visible;"
   id="Arrow1Sends"
   refX="0.0"
   refY="0.0"
   orient="auto"
   inkscape:stockid="Arrow1Sends"><path
     transform="scale(0.2) rotate(180) translate(6,0)"
     style="stroke:#666666;stroke-width:1.0pt;fill:#666666;fill-rule:evenodd"
     d="M 0.0,0.0 L 5.0,-5.0 L -12.5,0.0 L 5.0,5.0 L 0.0,0.0 z "
     id="path4481" /></marker></defs>













<path
   transform="matrix(1.0548121,-0.28444841,0.28444841,1.0548121,-10.824087,6.5865224)"
   d="m 45.55932,25.220339 a 19.525423,14.815636 0 1 1 -39.0508457,0 19.525423,14.815636 0 1 1 39.0508457,0 z"
   sodipodi:ry="14.815636"
   sodipodi:rx="19.525423"
   sodipodi:cy="25.220339"
   sodipodi:cx="26.033897"
   id="path3036"
   style="fill:none;stroke:#333333;stroke-width:1.37300742;stroke-linecap:butt;stroke-linejoin:miter;stroke-miterlimit:4;stroke-opacity:1;stroke-dasharray:none"
   sodipodi:type="arc" /><path
   sodipodi:type="arc"
   style="color:#000000;fill:none;stroke:#333333;stroke-width:1.37300737;stroke-linecap:butt;stroke-linejoin:miter;stroke-miterlimit:4;stroke-opacity:1;stroke-dasharray:none;stroke-dashoffset:0;marker:none;visibility:visible;display:inline;overflow:visible;enable-background:accumulate"
   id="path3009"
   sodipodi:cx="26.033897"
   sodipodi:cy="25.220339"
   sodipodi:rx="15.254236"
   sodipodi:ry="10.576271"
   d="m 41.288134,25.220339 a 15.254236,10.576271 0 1 1 -30.508473,0 15.254236,10.576271 0 1 1 30.508473,0 z"
   transform="matrix(1.0548121,-0.28444841,0.28444841,1.0548121,-10.824087,6.5865224)" /><path
   transform="matrix(1.0548121,-0.28444841,0.28444841,1.0548121,-11.467701,6.7600842)"
   d="m 35.186439,25.220339 a 9.1525412,7.7288136 0 1 1 -18.305083,0 9.1525412,7.7288136 0 1 1 18.305083,0 z"
   sodipodi:ry="7.7288136"
   sodipodi:rx="9.1525412"
   sodipodi:cy="25.220339"
   sodipodi:cx="26.033897"
   id="path3011"
   style="color:#000000;fill:none;stroke:#333333;stroke-width:1.37300737;stroke-linecap:butt;stroke-linejoin:miter;stroke-miterlimit:4;stroke-opacity:1;stroke-dasharray:none;stroke-dashoffset:0;marker:none;visibility:visible;display:inline;overflow:visible;enable-background:accumulate"
   sodipodi:type="arc" /><path
   sodipodi:type="arc"
   style="color:#000000;fill:none;stroke:#333333;stroke-width:1.37300737;stroke-linecap:butt;stroke-linejoin:miter;stroke-miterlimit:4;stroke-opacity:1;stroke-dasharray:none;stroke-dashoffset:0;marker:none;visibility:visible;display:inline;overflow:visible;enable-background:accumulate"
   id="path3013"
   sodipodi:cx="26.033897"
   sodipodi:cy="25.220339"
   sodipodi:rx="3.254236"
   sodipodi:ry="3.6610169"
   d="m 29.288133,25.220339 a 3.254236,3.6610169 0 1 1 -6.508472,0 3.254236,3.6610169 0 1 1 6.508472,0 z"
   transform="matrix(1.0548121,-0.28444841,0.28444841,1.0548121,-13.143029,6.5214475)" /><path
   sodipodi:nodetypes="ccccc"
   inkscape:connector-curvature="0"
   id="path3841"
   d="m 2.5694174,11.118949 17.1261256,2.513926 -6.441938,7.856021 11.784033,-1.571204 -2.671047,6.599057"
   style="fill:none;stroke:#666666;stroke-width:1.5;stroke-linecap:butt;stroke-linejoin:miter;stroke-opacity:1;marker-end:url(#Arrow1Sends);stroke-miterlimit:4;stroke-dasharray:none" /></svg>