<?xml version="1.0" encoding="UTF-8" standalone="no"?>
<!-- Generator: Adobe Illustrator 16.1.0, SVG Export Plug-In . SVG Version: 6.00 Build 0)  -->

<svg
   xmlns:dc="http://purl.org/dc/elements/1.1/"
   xmlns:cc="http://creativecommons.org/ns#"
   xmlns:rdf="http://www.w3.org/1999/02/22-rdf-syntax-ns#"
   xmlns:svg="http://www.w3.org/2000/svg"
   xmlns="http://www.w3.org/2000/svg"
   xmlns:xlink="http://www.w3.org/1999/xlink"
   xmlns:sodipodi="http://sodipodi.sourceforge.net/DTD/sodipodi-0.dtd"
   xmlns:inkscape="http://www.inkscape.org/namespaces/inkscape"
   version="1.1"
   id="Layer_1"
   x="0px"
   y="0px"
   width="48px"
   height="48px"
   viewBox="0 0 48 48"
   enable-background="new 0 0 48 48"
   xml:space="preserve"
   inkscape:version="0.48.5 r10040"
   sodipodi:docname="InfiniTable.svg"><metadata
   id="metadata37"><rdf:RDF><cc:Work
       rdf:about=""><dc:format>image/svg+xml</dc:format><dc:type
         rdf:resource="http://purl.org/dc/dcmitype/StillImage" /></cc:Work></rdf:RDF></metadata><defs
   id="defs35"><linearGradient
   inkscape:collect="always"
   id="linearGradient3781"><stop
     style="stop-color:#ffffff;stop-opacity:1;"
     offset="0"
     id="stop3783" /><stop
     style="stop-color:#ffffff;stop-opacity:0;"
     offset="1"
     id="stop3785" /></linearGradient><linearGradient
   inkscape:collect="always"
   id="linearGradient3844"><stop
     style="stop-color:#333333;stop-opacity:1;"
     offset="0"
     id="stop3846" /><stop
     style="stop-color:#333333;stop-opacity:0;"
     offset="1"
     id="stop3848" /></linearGradient><linearGradient
   id="linearGradient3830"><stop
     id="stop3832"
     offset="0"
     style="stop-color:#666666;stop-opacity:1;" /><stop
     id="stop3834"
     offset="1"
     style="stop-color:#666666;stop-opacity:0;" /></linearGradient>
	
	
	
	
	
	
	
	
	
	
	
	
	
	
<linearGradient
   inkscape:collect="always"
   xlink:href="#linearGradient3830"
   id="linearGradient3828"
   x1="17.084745"
   y1="41.18644"
   x2="18.719097"
   y2="41.18644"
   gradientUnits="userSpaceOnUse"
   gradientTransform="matrix(8.9393935,0,0,0.04552469,-120.76118,-20.375)" /><linearGradient
   inkscape:collect="always"
   xlink:href="#linearGradient3830"
   id="linearGradient3838"
   gradientUnits="userSpaceOnUse"
   gradientTransform="matrix(8.9393935,0,0,0.04552469,-120.76841,-31.375001)"
   x1="17.084745"
   y1="41.18644"
   x2="18.710686"
   y2="41.18644" /><linearGradient
   inkscape:collect="always"
   xlink:href="#linearGradient3844"
   id="linearGradient3850"
   x1="-6.5099068"
   y1="48.101696"
   x2="5.4872918"
   y2="48.101696"
   gradientUnits="userSpaceOnUse"
   gradientTransform="matrix(1,0,0,0.13470319,42.152544,-13.479452)" /><linearGradient
   inkscape:collect="always"
   xlink:href="#linearGradient3844"
   id="linearGradient3854"
   gradientUnits="userSpaceOnUse"
   gradientTransform="matrix(1,0,0,0.13470319,42.152544,-47.479452)"
   x1="-6.5099068"
   y1="48.101696"
   x2="5.4872918"
   y2="48.101696" /><linearGradient
   inkscape:collect="always"
   xlink:href="#linearGradient3781"
   id="linearGradient3787"
   x1="12.372416"
   y1="43.09309"
   x2="23.484953"
   y2="43.09309"
   gradientUnits="userSpaceOnUse"
   gradientTransform="matrix(1,0,0,2.7814623,24.618999,-143.86181)" /></defs><sodipodi:namedview
   pagecolor="#ffffff"
   bordercolor="#666666"
   borderopacity="1"
   objecttolerance="10"
   gridtolerance="10"
   guidetolerance="10"
   inkscape:pageopacity="0"
   inkscape:pageshadow="2"
   inkscape:window-width="1280"
   inkscape:window-height="697"
   id="namedview33"
   showgrid="false"
   inkscape:zoom="2.4583333"
   inkscape:cx="-36.115046"
   inkscape:cy="28.58996"
   inkscape:window-x="-8"
   inkscape:window-y="-8"
   inkscape:window-maximized="1"
   inkscape:current-layer="Layer_1" />
<rect
   style="fill:#ffffff"
   id="rect11"
   height="8"
   width="10"
   y="23"
   x="8" /><rect
   style="fill:#ffffff"
   id="rect13"
   height="8"
   width="10"
   y="14"
   x="8" /><rect
   style="fill:#ffffff"
   id="rect9"
   height="8"
   width="10"
   y="32"
   x="8" /><rect
   style="fill:#ffffff"
   id="rect15"
   height="8"
   width="10"
   y="32"
   x="19" /><rect
   style="fill:#ffffff"
   id="rect17"
   height="8"
   width="10"
   y="23"
   x="19" /><rect
   style="fill:#ffffff"
   id="rect19"
   height="8"
   width="10"
   y="14"
   x="19" /><rect
   style="fill:#ffffff"
   id="rect21"
   height="8"
   width="0"
   y="32"
   x="40" /><rect
   style="fill:#ffffff"
   id="rect23"
   height="8"
   width="10"
   y="32"
   x="30" /><rect
   style="fill:#ffffff"
   id="rect25"
   height="8"
   width="0"
   y="23"
   x="40" /><rect
   style="fill:#ffffff"
   id="rect27"
   height="8"
   width="10"
   y="23"
   x="30" /><rect
   style="fill:#ffffff"
   id="rect29"
   height="8"
   width="0"
   y="14"
   x="40" /><rect
   style="fill:#ffffff"
   id="rect31"
   height="8"
   width="10"
   y="14"
   x="30" />
<path
   style="fill:#333333"
   inkscape:connector-curvature="0"
   id="path5"
   d="m 40,34.881356 2,0 L 42,6 6,6 l 0,28.881356 2,0 M 40,22 l 0,0 0,1 0,0 0,8 0,0 0,1 0,0 0,0.881356 0,0 -10,0 -1,0 -10,0 -1,0 -10,0 0,0 L 8,14 l 0,0 10,0 1,0 10,0 1,0 10,0 0,0 z"
   sodipodi:nodetypes="ccccccccccccccccccccccccccccccc" /><rect
   style="fill:url(#linearGradient3787);fill-opacity:1"
   id="rect3042"
   width="15.460893"
   height="32"
   x="32.618999"
   y="-40"
   transform="matrix(0,1,-1,0,0,0)" /><rect
   transform="matrix(0,1,-1,0,0,0)"
   y="-30"
   x="31.958876"
   height="1"
   width="14.610168"
   id="rect3836"
   style="fill:url(#linearGradient3838);fill-opacity:1" /><rect
   transform="matrix(0,1,-1,0,0,0)"
   y="-41.999996"
   x="33.101696"
   height="1.999998"
   width="14.394329"
   id="rect3852"
   style="fill:url(#linearGradient3854);fill-opacity:1" /><path
   style="fill:#666666"
   inkscape:connector-curvature="0"
   id="path7"
   d="m 30,14 -1,0 0,8 -10,0 0,-8 -1,0 0,8 -10,0 0,-8 0,0 c 0,4.909839 0,40.207724 0,18 19.478978,0 15.067407,0 32,0 l 0,-1 -10,0 0,-8 10,0 0,-1 -10,0 z M 18,31 8,31 8,23 18,23 z m 11,0 -10,0 0,-8 10,0 z"
   sodipodi:nodetypes="ccccccccccccccccccccccccccccc" /><rect
   style="fill:url(#linearGradient3850);fill-opacity:1"
   id="rect3842"
   width="14.394329"
   height="1.999998"
   x="33.101696"
   y="-8"
   transform="matrix(0,1,-1,0,0,0)" /><rect
   style="fill:url(#linearGradient3828);fill-opacity:1"
   id="rect3812"
   width="14.610168"
   height="1"
   x="31.966103"
   y="-19"
   transform="matrix(0,1,-1,0,0,0)" /><rect
   style="fill:#666666;fill-opacity:0.57978725"
   id="rect3840"
   width="32"
   height="0.91525424"
   x="8"
   y="40.084747" /></svg>